<?xml version="1.0" standalone="no"?>
<!DOCTYPE svg PUBLIC "-//W3C//DTD SVG 20010904//EN"
 "http://www.w3.org/TR/2001/REC-SVG-20010904/DTD/svg10.dtd">
<svg version="1.0" xmlns="http://www.w3.org/2000/svg"
 width="583.000000pt" height="272.000000pt" viewBox="0 0 583.000000 272.000000"
 preserveAspectRatio="xMidYMid meet">

<g transform="translate(0.000000,272.000000) scale(0.100000,-0.100000)"
fill="#000000" stroke="none">
<path d="M2172 1989 c-63 -12 -142 -59 -173 -102 -36 -49 -50 -118 -39 -180
12 -61 21 -76 68 -119 43 -39 108 -66 232 -98 113 -29 138 -47 125 -92 -25
-76 -230 -58 -327 30 -22 20 -42 31 -47 26 -4 -5 -27 -35 -50 -67 -41 -56 -42
-59 -25 -78 65 -72 193 -119 323 -119 111 0 180 20 233 68 55 49 78 102 78
180 0 145 -64 205 -279 263 -148 40 -176 64 -131 109 15 15 33 20 78 20 76 0
120 -14 181 -54 l50 -34 50 66 c58 78 57 80 -39 131 -96 51 -210 70 -308 50z"/>
<path d="M4081 1989 c-179 -35 -268 -197 -191 -349 32 -63 109 -107 246 -141
149 -37 184 -65 141 -115 -20 -23 -34 -28 -85 -32 -79 -6 -150 17 -219 69
l-52 39 -47 -66 -47 -65 29 -30 c16 -17 63 -47 103 -67 75 -37 75 -37 205 -37
123 0 134 2 181 27 28 14 62 39 77 55 60 63 75 181 34 269 -36 78 -87 108
-258 154 -62 17 -121 38 -130 47 -45 41 -3 83 82 83 73 0 119 -14 178 -54 l50
-33 50 68 51 67 -35 27 c-52 40 -132 73 -204 84 -74 12 -97 12 -159 0z"/>
<path d="M3518 1721 c-3 -254 -4 -271 -24 -297 -34 -46 -67 -65 -125 -70 -68
-7 -133 24 -164 76 -18 32 -20 56 -23 293 l-4 257 -89 0 -90 0 3 -282 c3 -273
4 -285 27 -335 27 -61 83 -115 149 -146 40 -18 66 -21 172 -22 114 0 130 2
181 26 72 34 123 88 151 158 20 53 22 72 22 331 l1 275 -92 3 -92 3 -3 -270z"/>
<path d="M1287 1968 c-38 -99 -255 -659 -273 -705 l-24 -63 104 0 103 0 137
383 c75 211 136 386 136 390 0 13 -178 8 -183 -5z"/>
<path d="M2690 1590 l0 -390 95 0 95 0 0 390 0 390 -95 0 -95 0 0 -390z"/>
<path d="M1430 1683 c0 -4 37 -114 83 -245 l82 -238 103 0 c56 0 102 2 102 5
0 8 -169 445 -181 466 -8 16 -22 19 -99 19 -50 0 -90 -3 -90 -7z"/>
</g>
</svg>
